# Blender v2.93.6 OBJ File: 'wolf.blend'
# www.blender.org
mtllib wolf_tail.mtl
o Wolf.003
v -0.531398 0.874680 0.055811
v -0.582821 0.823247 0.015389
v -0.790976 0.475463 0.092634
v -0.660538 0.762157 0.080674
v -0.816958 0.512678 0.053882
v -0.617727 0.719452 0.078907
v -0.612376 0.832556 0.055832
v -0.582821 0.823247 0.096275
v -0.866965 0.361241 0.053882
v -1.006730 0.411774 0.053882
v -0.874821 0.399441 0.035199
v -0.777958 0.418385 0.033740
v -0.790976 0.475463 0.015131
v -0.874821 0.399441 0.072565
v -0.686354 0.692286 0.019354
v -0.688598 0.647844 0.055832
v -0.760827 0.417112 0.053882
v -0.660538 0.762157 0.030989
v -0.735567 0.730325 0.055832
v -0.632708 0.723731 0.064859
v -0.623931 0.752277 0.030150
v -0.617557 0.720360 0.036477
v -0.686354 0.692286 0.092310
v -0.777958 0.418385 0.074025
v -0.731102 0.678167 0.024035
v -0.731102 0.678167 0.087629
v -0.779244 0.633144 0.054857
vt 0.482407 0.766248
vt 0.486815 0.799901
vt 0.000000 1.000000
vt 0.000000 1.000000
vt 0.000000 1.000000
vt 0.000000 1.000000
vt 0.000000 1.000000
vt 0.000000 1.000000
vt 0.000000 1.000000
vt 0.000000 1.000000
vt 0.000000 1.000000
vt 0.000000 1.000000
vt 0.140326 0.618176
vt 0.282257 0.492729
vt 0.123392 0.580494
vt 0.798440 0.403915
vt 0.749296 0.458881
vt 0.975528 0.459526
vt 0.798440 0.317513
vt 0.975528 0.334679
vt 0.749296 0.294548
vt 0.530356 0.847231
vt 0.535964 0.857423
vt 0.554833 0.852302
vt 0.465331 0.736822
vt 0.466272 0.734068
vt 0.464280 0.731015
vt 0.470042 0.751312
vt 0.468862 0.749484
vt 0.467253 0.750763
vt 0.467324 0.729442
vt 0.468861 0.731404
vt 0.465570 0.729689
vt 0.492924 0.813826
vt 0.493132 0.810665
vt 0.497474 0.813438
vt 0.459456 0.793305
vt 0.461206 0.794016
vt 0.460939 0.786261
vt 0.529650 0.858487
vt 0.527847 0.860249
vt 0.526229 0.858659
vt 0.608878 0.593579
vt 0.613896 0.614147
vt 0.610395 0.618277
vt 0.610344 0.599562
vt 0.605476 0.579748
vt 0.597732 0.577716
vt 0.580948 0.566627
vt 0.583590 0.555589
vt 0.581399 0.548416
vt 0.589612 0.566365
vt 0.580750 0.575909
vt 0.580933 0.565246
vt 0.462756 0.730786
vt 0.464215 0.732819
vt 0.463785 0.734862
vt 0.601569 0.621008
vt 0.600823 0.620456
vt 0.584418 0.618966
vt 0.483299 0.800267
vt 0.520824 0.826102
vt 0.469530 0.739997
vt 0.466378 0.738958
vt 0.466077 0.735332
vt 0.487404 0.808726
vt 0.510317 0.819697
vt 0.503312 0.806180
vt 0.499845 0.801958
vt 0.477878 0.735780
vt 0.477869 0.740706
vt 0.464715 0.728123
vt 0.481465 0.745903
vt 0.488711 0.757775
vt 0.490127 0.754648
vt 0.484620 0.782489
vt 0.483049 0.769613
vt 0.477157 0.773097
vt 0.474831 0.767088
vt 0.470071 0.782960
vt 0.468285 0.775035
vt 0.469804 0.729461
vt 0.477035 0.736540
vt 0.477999 0.732596
vt 0.478420 0.746287
vt 0.482346 0.751802
vt 0.477104 0.752145
vt 0.473047 0.792616
vt 0.480786 0.783342
vt 0.485221 0.804628
vt 0.530356 0.847231
vt 0.502495 0.837962
vt 0.509892 0.844218
vt 0.519580 0.802811
vt 0.517744 0.815619
vt 0.538081 0.809172
vt 0.488271 0.754618
vt 0.491169 0.779490
vt 0.492187 0.775399
vt 0.554115 0.862847
vt 0.535964 0.857423
vt 0.536721 0.859365
vt 0.473849 0.825912
vt 0.470472 0.823171
vt 0.463533 0.816453
vt 0.466504 0.813755
vt 0.468360 0.808736
vt 0.477415 0.822225
vt 0.493013 0.812944
vt 0.489056 0.816451
vt 0.485221 0.804628
vt 0.585780 0.562762
vt 0.506778 0.810402
vn -0.7033 0.2147 0.6777
vn -0.5787 0.5933 0.5595
vn -0.1665 -0.4606 -0.8718
vn 0.0444 -0.3005 -0.9527
vn -0.3061 0.5757 0.7582
vn -0.1484 -0.0962 0.9842
vn 0.4293 -0.1900 -0.8830
vn 0.7352 -0.2248 -0.6395
vn -0.4647 0.5600 -0.6859
vn -0.4047 0.2937 -0.8660
vn 0.7152 -0.4646 -0.5221
vn -0.0123 -0.1968 -0.9804
vn 0.5683 -0.4697 -0.6756
vn -0.4047 0.2938 0.8660
vn 0.4244 -0.8063 -0.4119
vn 0.0444 -0.3005 0.9527
vn -0.4057 0.7802 0.4761
vn -0.1707 0.2229 -0.9598
vn -0.5787 0.5933 -0.5595
vn 0.7331 -0.2349 0.6383
vn -0.8647 -0.2581 -0.4309
vn -0.6966 0.2236 -0.6818
vn 0.6106 -0.5207 0.5968
vn -0.3061 0.5757 -0.7582
vn -0.1228 0.0607 0.9906
vn 0.0699 -0.4267 -0.9017
vn 0.6084 -0.4996 0.6166
vn -0.4446 0.4382 -0.7812
vn 0.4244 -0.8063 0.4119
vn -0.6653 0.0999 0.7399
vn -0.4647 0.5600 0.6859
vn -0.4059 0.7801 -0.4762
vn -0.1484 -0.0962 -0.9842
vn 0.6787 -0.6421 -0.3564
vn 0.8870 -0.3189 0.3340
vn 0.8902 -0.3150 -0.3290
vn -0.4446 0.4382 0.7812
vn -0.1665 -0.4606 0.8718
vn 0.4104 -0.1967 0.8904
vn -0.2557 -0.9665 -0.0217
vn 0.0699 -0.4267 0.9017
vn 0.7072 -0.7070 0.0000
vn -0.6804 0.2182 0.6996
vn -0.7180 0.3165 0.6200
vn -0.1291 0.0815 -0.9883
vn -0.7060 0.3236 -0.6300
vn -0.6673 0.2283 -0.7089
vn -0.1707 0.2229 0.9598
vn 0.9480 -0.3183 -0.0030
vn 0.9475 -0.3199 0.0000
usemtl Material.003
s off
f 27/1/1 5/2/1 3/3/1
f 7/4/2 4/5/2 8/6/2
usemtl Material.001
f 9/7/3 10/8/3 11/9/3
f 12/10/4 11/9/4 13/11/4
usemtl Material.003
f 5/12/5 10/8/5 3/3/5
usemtl Material.001
f 10/13/6 14/14/6 3/15/6
f 12/16/7 13/17/7 15/18/7
f 12/19/8 16/20/8 17/21/8
usemtl Material.003
f 7/22/9 18/23/9 19/24/9
usemtl Material.001
f 18/25/10 2/26/10 15/27/10
f 15/28/11 20/29/11 16/30/11
f 21/31/12 2/32/12 22/33/12
f 2/34/13 21/35/13 15/36/13
f 8/37/14 4/38/14 23/39/14
f 12/40/15 17/41/15 9/42/15
f 14/43/16 24/44/16 3/45/16
usemtl Material.003
f 8/46/17 1/47/17 7/48/17
usemtl Material.001
f 15/49/18 25/50/18 18/51/18
usemtl Material.003
f 18/52/19 7/53/19 2/54/19
usemtl Material.001
f 16/55/20 24/56/20 17/57/20
f 21/58/21 22/59/21 20/60/21
usemtl Material.003
f 13/61/22 5/2/22 27/62/22
usemtl Material.001
f 20/63/23 23/64/23 16/65/23
usemtl Material.003
f 10/66/24 5/2/24 13/61/24
usemtl Material.001
f 23/67/25 26/68/25 3/69/25
f 12/70/26 9/71/26 11/72/26
f 20/73/27 8/74/27 23/75/27
usemtl Material.003
f 18/23/28 25/50/28 19/24/28
usemtl Material.001
f 17/76/29 24/77/29 9/78/29
f 8/79/30 20/80/30 6/81/30
usemtl Material.003
f 4/82/31 7/83/31 19/84/31
f 1/85/32 2/86/32 7/87/32
usemtl Material.001
f 11/88/33 10/89/33 13/90/33
f 21/91/34 20/92/34 15/93/34
f 16/94/35 23/95/35 24/96/35
f 15/97/36 16/98/36 12/99/36
usemtl Material.003
f 4/82/37 19/84/37 26/68/37
usemtl Material.001
f 10/100/38 9/101/38 14/102/38
f 3/103/39 24/104/39 23/105/39
f 22/106/40 6/107/40 20/108/40
f 9/109/41 24/110/41 14/111/41
f 2/32/42 1/85/42 8/46/42
usemtl Material.003
f 3/3/43 26/68/43 27/1/43
f 26/68/44 19/84/44 27/1/44
usemtl Material.001
f 15/49/45 13/112/45 25/50/45
usemtl Material.003
f 19/24/46 25/50/46 27/62/46
f 25/50/47 13/61/47 27/62/47
usemtl Material.001
f 23/67/48 4/113/48 26/68/48
f 8/46/49 6/107/49 22/106/49
f 22/106/50 2/32/50 8/46/50
