# Blender v2.93.6 OBJ File: 'giraffe.blend'
# www.blender.org
mtllib giraffe.mtl
o Plane.002
v -0.932332 2.712160 0.091564
v -0.970279 2.481218 0.082728
v -1.052623 2.480976 0.045640
v -1.004714 2.436990 0.040208
v -1.073586 2.248705 0.026668
v -1.026113 2.247808 0.023754
v -1.081424 1.977595 0.013935
v -1.038836 1.976846 0.011361
v -1.083850 1.914620 0.015548
v -1.041670 1.913315 0.013003
v -1.097728 1.764859 0.038633
v -1.039796 1.762815 0.034792
v -1.042352 1.766098 0.005015
v -1.134614 1.615180 0.062788
v -1.003211 1.610905 0.054261
v -1.008606 1.617833 0.008209
v -1.160528 1.399837 0.061581
v -1.030754 1.395632 0.053475
v -1.036032 1.402411 0.007330
v -1.177443 1.225899 0.060636
v -1.040535 1.221777 0.052503
v -1.045728 1.228447 0.007998
v -1.189249 1.072837 0.039240
v -1.102432 1.070152 0.034006
v -1.207619 0.977982 0.026636
v -1.174582 0.976921 0.024601
v -0.960549 2.592641 0.098045
v -1.028735 2.458935 0.048666
v -1.049942 2.248081 0.028829
v -1.060219 1.977034 0.014172
v -1.062846 1.913785 0.015800
v -1.068970 1.763660 0.041965
v -1.068996 1.612293 0.067647
v -1.095954 1.397213 0.065520
v -1.109191 1.223184 0.065374
v -1.146015 1.071116 0.041512
v -1.193650 0.973068 0.026404
v -0.933746 2.745422 0.000000
v -0.932332 2.712160 -0.091563
v -0.946741 2.507186 0.000000
v -0.970279 2.481218 -0.082727
v -1.052623 2.480976 -0.045639
v -1.074754 2.474987 0.000000
v -1.004714 2.436990 -0.040208
v -1.003982 2.441185 0.000000
v -1.073586 2.248705 -0.026668
v -1.075628 2.262737 0.000000
v -1.026113 2.247808 -0.023753
v -1.026648 2.268294 0.000000
v -1.081424 1.977595 -0.013934
v -1.085666 1.936997 0.000000
v -1.038836 1.976846 -0.011361
v -1.039510 1.938137 0.000000
v -1.083850 1.914620 -0.015548
v -1.041670 1.913315 -0.013003
v -1.097728 1.764859 -0.038633
v -1.095037 1.758937 0.000000
v -1.039796 1.762815 -0.034791
v -1.042352 1.766098 -0.005014
v -1.134614 1.615180 -0.062788
v -1.149838 1.629206 0.000000
v -1.003211 1.610905 -0.054261
v -1.008606 1.617833 -0.008209
v -1.160528 1.399837 -0.061580
v -1.168778 1.391120 0.000000
v -1.030754 1.395632 -0.053474
v -1.036032 1.402411 -0.007330
v -1.177443 1.225899 -0.060636
v -1.190410 1.225499 0.000000
v -1.040535 1.221777 -0.052503
v -1.045728 1.228447 -0.007998
v -1.189249 1.072837 -0.039239
v -1.193348 1.066463 0.000000
v -1.102432 1.070152 -0.034006
v -1.207619 0.977982 -0.026636
v -1.212911 0.960383 0.000000
v -1.174582 0.976921 -0.024601
v -1.189368 0.960965 0.000000
v -0.960549 2.592641 -0.098045
v -0.945158 2.624818 0.000000
v -1.028735 2.458935 -0.048666
v -1.039115 2.467505 0.000000
v -1.049942 2.248081 -0.028829
v -1.051518 2.265473 0.000000
v -1.060219 1.977034 -0.014172
v -1.062946 1.937558 0.000000
v -1.062846 1.913785 -0.015799
v -1.068970 1.763660 -0.041965
v -1.072316 1.759498 0.000000
v -1.068996 1.612293 -0.067646
v -1.095954 1.397213 -0.065520
v -1.103471 1.392734 0.000000
v -1.109191 1.223184 -0.065374
v -1.146015 1.071116 -0.041511
v -1.146366 1.067623 0.000000
v -1.193650 0.973068 -0.026404
v -1.201322 0.960670 0.000000
v -1.068685 1.631484 0.000000
v -1.042352 1.766098 0.000000
v -1.036032 1.402411 0.000000
v -1.109555 1.227497 0.000000
v -1.045728 1.228447 0.000000
v -1.097904 1.068821 0.000000
v -1.008606 1.617833 0.000000
vt 0.003797 0.574930
vt 0.003797 0.591209
vt 0.003797 0.619096
vt 0.003797 0.679815
vt 0.003797 0.591301
vt 0.003797 0.591301
vt 0.003797 0.574930
vt 0.003797 0.574930
vt 0.003797 0.574930
vt 0.003797 0.679815
vt 0.003797 0.661899
vt 0.003797 0.679815
vt 0.003797 0.591383
vt 0.003797 0.500000
vt 0.003797 0.591301
vt 0.003797 0.500000
vt 0.003797 0.500000
vt 0.003797 0.500000
vt 0.003797 0.500000
vt 0.003797 0.574930
vt 0.003797 0.574930
vt 0.003797 0.679815
vt 0.003797 0.661899
vt 0.003797 0.679815
vt 0.003797 0.574930
vt 0.003797 0.500000
vt 0.003797 0.661899
vt 0.003797 0.679815
vt 0.003797 0.591197
vt 0.003797 0.574930
vt 0.003797 0.661899
vt 0.003797 0.661899
vt 0.003797 0.574930
vt 0.003797 0.574930
vt 0.003797 0.661899
vt 0.003797 0.591209
vt 0.003797 0.679815
vt 0.003797 0.591301
vt 0.003797 0.591301
vt 0.003797 0.574930
vt 0.003797 0.679815
vt 0.003797 0.679815
vt 0.003797 0.591383
vt 0.003797 0.500000
vt 0.003797 0.500000
vt 0.003797 0.591301
vt 0.003797 0.500000
vt 0.003797 0.500000
vt 0.003797 0.500000
vt 0.003797 0.574930
vt 0.003797 0.574930
vt 0.003797 0.679815
vt 0.003797 0.679815
vt 0.003797 0.500000
vt 0.003797 0.679815
vt 0.003797 0.591197
vt 0.003797 0.574930
vt 0.951377 0.184326
vt 0.577610 0.290692
vt 0.578299 0.221160
vt 0.101960 0.226080
vt 0.599921 0.370942
vt 0.101741 0.288423
vt 0.917363 0.116548
vt 0.578654 0.149738
vt 0.102543 0.163038
vt 0.987854 0.258609
vt 0.029232 0.324281
vt 0.972155 0.406154
vt 0.951377 0.184326
vt 0.578299 0.221160
vt 0.577610 0.290692
vt 0.101960 0.226080
vt 0.101741 0.288423
vt 0.917363 0.116548
vt 0.578654 0.149738
vt 0.102543 0.163038
vt 0.987854 0.258609
vt 0.003797 0.500000
vt 0.003797 0.574930
vt 0.003797 0.574930
vt 0.016245 0.263948
vt 0.373091 0.537815
vt 0.389689 0.345339
vt 0.014170 0.972203
vt 0.003797 0.751948
vt 0.003797 0.996203
vt 0.439481 0.984203
vt 0.003797 0.574930
vt 0.003797 0.500000
vt 0.003797 0.500000
vt 0.003797 0.679815
vt 0.003797 0.661899
vt 0.003797 0.679815
vt 0.003797 0.619089
vt 0.003797 0.591298
vt 0.003797 0.500000
vt 0.003797 0.591302
vt 0.412510 0.012000
vt 0.051515 0.012000
vt 0.003797 0.619089
vt 0.003797 0.500000
vt 0.389689 0.679899
vt 0.003797 0.500000
vt 0.016245 0.263948
vt 0.389689 0.345339
vt 0.373091 0.537815
vt 0.003797 0.619202
vt 0.014170 0.972203
vt 0.003797 0.500000
vt 0.003797 0.500000
vt 0.003797 0.679815
vt 0.003797 0.679815
vt 0.003797 0.591298
vt 0.003797 0.619132
vt 0.003797 0.619089
vt 0.003797 0.619089
vt 0.003797 0.619033
vt 0.003797 0.661899
vt 0.003797 0.591302
vt 0.412510 0.012000
vt 0.051515 0.012000
vt 0.003797 0.661899
vt 0.003797 0.619081
vt 0.003797 0.500000
vn 0.0224 -0.9074 0.4196
vn -0.0607 0.0038 0.9981
vn 0.9751 0.2219 0.0000
vn -0.9863 0.1180 0.1154
vn -0.9883 0.0955 0.1189
vn -0.0740 -0.1371 0.9878
vn 0.1999 0.1718 0.9646
vn 0.1771 -0.1901 0.9657
vn 0.9910 -0.0557 -0.1215
vn -0.0570 -0.1249 0.9905
vn -0.9809 0.1802 0.0732
vn 0.7621 -0.6463 -0.0389
vn 0.1607 -0.2214 0.9618
vn 0.9394 -0.3140 0.1374
vn 0.1987 -0.0290 0.9796
vn -0.9769 0.0462 0.2086
vn -0.1067 0.1663 0.9803
vn -0.0739 -0.0006 0.9973
vn 0.1813 -0.0157 0.9833
vn 0.9736 0.2203 -0.0593
vn 0.9831 -0.1246 -0.1339
vn 0.0207 -0.8360 0.5483
vn 0.9920 -0.1263 0.0000
vn -0.9194 0.2724 0.2838
vn -0.0692 0.0013 0.9976
vn 0.2177 -0.8734 0.4356
vn -0.2852 -0.8330 0.4740
vn 0.1808 -0.0324 0.9830
vn -0.9702 0.1267 0.2066
vn -0.0651 0.1746 0.9825
vn 0.9205 -0.3562 -0.1608
vn 0.9834 -0.1253 -0.1309
vn -0.9947 0.0184 0.1009
vn 0.1625 -0.1912 0.9680
vn -0.9806 0.1808 0.0753
vn 0.7781 -0.6150 0.1277
vn 0.1348 -0.2146 0.9674
vn 0.9505 -0.3107 0.0000
vn -0.0573 -0.1339 0.9893
vn 0.1839 -0.0148 0.9828
vn 0.9908 -0.0550 -0.1239
vn -0.9142 0.3862 -0.1229
vn 0.9714 0.2237 -0.0801
vn -0.0280 -0.1263 0.9916
vn 0.9985 -0.0556 0.0000
vn 0.2400 0.1623 0.9571
vn -0.0608 0.0017 0.9981
vn -0.9649 0.0768 0.2511
vn 0.0224 -0.9074 -0.4196
vn -0.0607 0.0038 -0.9981
vn -0.9863 0.1180 -0.1154
vn -0.9883 0.0955 -0.1189
vn -0.0740 -0.1371 -0.9878
vn 0.1999 0.1718 -0.9646
vn 0.1771 -0.1901 -0.9657
vn 0.9910 -0.0557 0.1215
vn -0.0570 -0.1249 -0.9905
vn -0.9809 0.1802 -0.0732
vn 0.7621 -0.6463 0.0389
vn 0.1607 -0.2214 -0.9618
vn 0.9394 -0.3140 -0.1374
vn 0.1987 -0.0290 -0.9796
vn -0.9769 0.0462 -0.2086
vn -0.1067 0.1663 -0.9803
vn -0.0739 -0.0006 -0.9973
vn 0.1813 -0.0157 -0.9833
vn 0.9736 0.2203 0.0593
vn 0.9831 -0.1246 0.1339
vn 0.0207 -0.8360 -0.5483
vn -0.9194 0.2724 -0.2838
vn -0.0692 0.0013 -0.9976
vn 0.2177 -0.8734 -0.4356
vn -0.2852 -0.8330 -0.4740
vn 0.1808 -0.0324 -0.9830
vn -0.9702 0.1267 -0.2066
vn -0.0651 0.1746 -0.9825
vn 0.9205 -0.3562 0.1608
vn 0.9834 -0.1253 0.1309
vn -0.9947 0.0184 -0.1009
vn 0.1625 -0.1912 -0.9680
vn -0.9806 0.1808 -0.0753
vn 0.7781 -0.6150 -0.1277
vn 0.1348 -0.2146 -0.9674
vn -0.0573 -0.1339 -0.9893
vn 0.1839 -0.0148 -0.9828
vn 0.9908 -0.0550 0.1239
vn -0.9142 0.3862 0.1229
vn 0.9714 0.2237 0.0801
vn -0.0280 -0.1263 -0.9916
vn 0.2400 0.1623 -0.9571
vn -0.0608 0.0017 -0.9981
vn -0.9649 0.0768 -0.2511
vn -0.0929 -0.0840 0.9921
vn -0.0922 -0.0503 0.9945
vn -0.9957 0.0246 0.0892
vn 0.2059 -0.1079 0.9726
vn 0.2074 -0.0544 0.9767
vn -0.1830 -0.0636 0.9811
vn -0.9773 0.0301 0.2098
vn -0.9000 0.0037 0.4359
vn -0.0124 -0.0466 0.9988
vn 0.1296 -0.0584 0.9898
vn 0.2353 -0.1145 0.9652
vn -0.9898 0.0797 0.1178
vn -0.0929 -0.0840 -0.9921
vn -0.0922 -0.0503 -0.9945
vn -0.9957 0.0246 -0.0892
vn 0.2059 -0.1079 -0.9726
vn 0.2074 -0.0544 -0.9767
vn -0.1830 -0.0636 -0.9811
vn -0.9773 0.0301 -0.2098
vn -0.9000 0.0037 -0.4359
vn -0.0124 -0.0466 -0.9988
vn 0.1296 -0.0584 -0.9898
vn 0.2353 -0.1145 -0.9652
vn -0.9898 0.0797 -0.1178
vn 0.9915 -0.1300 0.0045
vn -0.2972 -0.1937 0.9350
vn 0.9943 -0.0941 -0.0495
vn -0.8877 0.4282 0.1693
vn 0.9955 -0.0422 0.0848
vn 0.9966 -0.0388 0.0731
vn -0.9835 0.0424 0.1759
vn -0.9935 0.0795 -0.0814
vn 0.9899 -0.0122 0.1411
vn 0.2216 0.9751 0.0000
vn 0.1305 0.0198 0.9913
vn 0.9885 -0.0133 0.1508
vn -0.0050 0.1719 0.9851
vn 0.7775 -0.6284 0.0240
vn -0.2419 -0.5680 0.7867
vn -0.0105 0.0262 0.9996
vn -0.1420 0.9899 0.0000
vn 0.1327 0.1436 0.9807
vn 0.9643 -0.1169 0.2377
vn 0.9999 -0.0165 0.0000
vn 0.9886 -0.1022 -0.1104
vn -0.6521 0.1937 0.7330
vn 0.9712 -0.2250 0.0786
vn 0.9972 -0.0441 -0.0605
vn -0.9807 0.0516 0.1888
vn 0.9963 0.0000 -0.0855
vn -0.0109 0.0260 0.9996
vn -0.1070 0.1611 0.9811
vn 0.7543 -0.6542 -0.0545
vn 0.2401 0.1572 0.9579
vn -0.4795 -0.0783 0.8741
vn -0.8318 0.4337 0.3464
vn 0.1313 0.0200 0.9911
vn 0.9915 -0.1300 -0.0045
vn -0.2972 -0.1937 -0.9350
vn 0.0000 0.0000 1.0000
vn 0.9943 -0.0941 0.0495
vn -0.8877 0.4282 -0.1693
vn 0.9955 -0.0422 -0.0848
vn 0.9966 -0.0388 -0.0731
vn -0.9835 0.0424 -0.1759
vn -0.9935 0.0795 0.0814
vn 0.9899 -0.0122 -0.1411
vn 0.1305 0.0198 -0.9913
vn 0.9885 -0.0133 -0.1508
vn -0.0050 0.1719 -0.9851
vn 0.7775 -0.6284 -0.0240
vn -0.2419 -0.5680 -0.7867
vn -0.0105 0.0262 -0.9996
vn 0.1327 0.1436 -0.9807
vn 0.9643 -0.1169 -0.2377
vn 0.9886 -0.1022 0.1104
vn -0.6521 0.1937 -0.7330
vn 0.9712 -0.2250 -0.0786
vn 0.9972 -0.0441 0.0605
vn -0.9807 0.0516 -0.1888
vn 0.9963 0.0000 0.0855
vn -0.0109 0.0260 -0.9996
vn -0.1070 0.1611 -0.9811
vn 0.7543 -0.6542 0.0545
vn 0.2401 0.1572 -0.9579
vn -0.4795 -0.0783 -0.8741
vn -0.8318 0.4337 -0.3464
vn 0.1313 0.0200 -0.9911
usemtl Material.012
s off
f 78/1/1 37/2/1 97/3/1
f 17/4/2 35/5/2 34/6/2
f 13/7/3 104/8/3 99/9/3
f 14/10/4 65/11/4 17/4/4
f 65/11/5 20/12/5 17/4/5
f 20/12/6 36/13/6 35/5/6
f 12/14/7 33/15/7 15/16/7
f 35/5/8 24/17/8 21/18/8
f 18/19/9 22/20/9 19/21/9
f 23/22/10 37/2/10 36/13/10
f 73/23/11 25/24/11 23/22/11
f 103/25/12 26/26/12 78/1/12
f 36/13/13 26/26/13 24/17/13
f 103/25/14 22/20/14 24/17/14
f 33/15/15 18/19/15 15/16/15
f 69/27/16 23/22/16 20/12/16
f 11/28/17 33/15/17 32/29/17
f 14/10/18 34/6/18 33/15/18
f 34/6/19 21/18/19 18/19/19
f 12/14/20 16/30/20 13/7/20
f 15/16/21 19/21/21 16/30/21
f 97/3/22 25/24/22 76/31/22
f 19/21/23 104/8/23 16/30/23
f 11/28/24 61/32/24 14/10/24
f 17/4/25 20/12/25 35/5/25
f 78/1/26 26/26/26 37/2/26
f 13/7/3 16/30/3 104/8/3
f 97/3/27 37/2/27 25/24/27
f 33/15/28 34/6/28 18/19/28
f 65/11/29 69/27/29 20/12/29
f 11/28/30 14/10/30 33/15/30
f 22/20/31 21/18/31 24/17/31
f 15/16/32 18/19/32 19/21/32
f 69/27/33 73/23/33 23/22/33
f 35/5/34 36/13/34 24/17/34
f 73/23/35 76/31/35 25/24/35
f 103/25/36 24/17/36 26/26/36
f 36/13/37 37/2/37 26/26/37
f 103/25/38 102/33/38 22/20/38
f 20/12/39 23/22/39 36/13/39
f 19/21/23 100/34/23 104/8/23
f 34/6/40 35/5/40 21/18/40
f 18/19/41 21/18/41 22/20/41
f 11/28/42 57/35/42 61/32/42
f 12/14/43 15/16/43 16/30/43
f 23/22/44 25/24/44 37/2/44
f 19/21/45 22/20/45 102/33/45
f 12/14/46 32/29/46 33/15/46
f 14/10/47 17/4/47 34/6/47
f 14/10/48 61/32/48 65/11/48
f 19/21/45 102/33/45 100/34/45
f 78/1/49 97/3/49 96/36/49
f 64/37/50 91/38/50 93/39/50
f 59/40/3 99/9/3 104/8/3
f 60/41/51 64/37/51 65/11/51
f 65/11/52 64/37/52 68/42/52
f 68/42/53 93/39/53 94/43/53
f 58/44/54 62/45/54 90/46/54
f 93/39/55 70/47/55 74/48/55
f 66/49/56 67/50/56 71/51/56
f 72/52/57 94/43/57 96/36/57
f 73/23/58 72/52/58 75/53/58
f 103/25/59 78/1/59 77/54/59
f 94/43/60 74/48/60 77/54/60
f 103/25/61 74/48/61 71/51/61
f 90/46/62 62/45/62 66/49/62
f 69/27/63 68/42/63 72/52/63
f 56/55/64 88/56/64 90/46/64
f 60/41/65 90/46/65 91/38/65
f 91/38/66 66/49/66 70/47/66
f 58/44/67 59/40/67 63/57/67
f 62/45/68 63/57/68 67/50/68
f 97/3/69 76/31/69 75/53/69
f 67/50/23 63/57/23 104/8/23
f 56/55/70 60/41/70 61/32/70
f 64/37/71 93/39/71 68/42/71
f 78/1/72 96/36/72 77/54/72
f 59/40/3 104/8/3 63/57/3
f 97/3/73 75/53/73 96/36/73
f 90/46/74 66/49/74 91/38/74
f 65/11/75 68/42/75 69/27/75
f 56/55/76 90/46/76 60/41/76
f 71/51/77 74/48/77 70/47/77
f 62/45/78 67/50/78 66/49/78
f 69/27/79 72/52/79 73/23/79
f 93/39/80 74/48/80 94/43/80
f 73/23/81 75/53/81 76/31/81
f 103/25/82 77/54/82 74/48/82
f 94/43/83 77/54/83 96/36/83
f 103/25/38 71/51/38 102/33/38
f 68/42/84 94/43/84 72/52/84
f 67/50/23 104/8/23 100/34/23
f 91/38/85 70/47/85 93/39/85
f 66/49/86 71/51/86 70/47/86
f 56/55/87 61/32/87 57/35/87
f 58/44/88 63/57/88 62/45/88
f 72/52/89 96/36/89 75/53/89
f 67/50/45 102/33/45 71/51/45
f 58/44/90 90/46/90 88/56/90
f 60/41/91 91/38/91 64/37/91
f 60/41/92 65/11/92 61/32/92
f 67/50/45 100/34/45 102/33/45
usemtl Material.009
f 28/58/93 5/59/93 29/60/93
f 5/59/94 30/61/94 29/60/94
f 47/62/95 7/63/95 5/59/95
f 4/64/96 29/60/96 6/65/96
f 29/60/97 8/66/97 6/65/97
f 28/58/98 3/67/98 5/59/98
f 47/62/99 51/68/99 7/63/99
f 3/67/100 43/69/100 47/62/100
f 5/59/101 7/63/101 30/61/101
f 29/60/102 30/61/102 8/66/102
f 4/64/103 28/58/103 29/60/103
f 3/67/104 47/62/104 5/59/104
f 81/70/105 83/71/105 46/72/105
f 46/72/106 83/71/106 85/73/106
f 47/62/107 46/72/107 50/74/107
f 44/75/108 48/76/108 83/71/108
f 83/71/109 48/76/109 52/77/109
f 81/70/110 46/72/110 42/78/110
f 47/62/111 50/74/111 51/68/111
f 42/78/112 47/62/112 43/69/112
f 46/72/113 85/73/113 50/74/113
f 83/71/114 52/77/114 85/73/114
f 44/75/115 83/71/115 81/70/115
f 42/78/116 46/72/116 47/62/116
usemtl Material.005
f 4/79/117 49/80/117 45/81/117
f 27/82/118 3/83/118 28/84/118
f 1/85/119 80/86/119 38/87/119
f 38/88/120 3/83/120 1/85/120
f 53/89/121 8/90/121 10/91/121
f 49/80/122 8/90/122 53/89/122
f 7/92/123 51/93/123 9/94/123
f 9/94/124 57/35/124 11/28/124
f 10/91/125 13/7/125 53/89/125
f 98/95/126 16/30/126 104/8/126
f 30/96/127 10/91/127 8/90/127
f 27/82/128 40/97/128 80/86/128
f 9/94/129 32/29/129 31/98/129
f 4/99/130 40/97/130 2/100/130
f 2/100/131 28/84/131 4/99/131
f 7/92/132 31/98/132 30/96/132
f 19/21/133 100/34/133 92/101/133
f 31/98/134 12/14/134 10/91/134
f 27/82/135 2/100/135 40/97/135
f 53/89/136 13/7/136 99/9/136
f 4/79/137 6/102/137 49/80/137
f 27/82/138 1/85/138 3/83/138
f 1/85/139 27/82/139 80/86/139
f 49/80/140 6/102/140 8/90/140
f 9/94/141 51/93/141 57/35/141
f 10/91/142 12/14/142 13/7/142
f 7/92/143 9/94/143 31/98/143
f 9/94/144 11/28/144 32/29/144
f 4/99/145 45/81/145 40/97/145
f 31/98/146 32/29/146 12/14/146
f 2/100/147 27/82/147 28/84/147
f 38/88/148 43/103/148 3/83/148
f 30/96/149 31/98/149 10/91/149
f 44/104/150 45/81/150 49/80/150
f 79/105/151 81/106/151 42/107/151
f 40/97/152 80/86/152 82/108/152
f 39/109/153 38/87/153 80/86/153
f 38/88/154 39/109/154 42/107/154
f 53/89/155 55/110/155 52/111/155
f 49/80/156 53/89/156 52/111/156
f 50/112/157 54/113/157 51/93/157
f 54/113/158 56/55/158 57/35/158
f 55/110/159 53/89/159 59/40/159
f 98/95/152 61/32/152 92/101/152
f 98/95/126 104/8/126 63/57/126
f 85/114/160 52/111/160 55/110/160
f 69/27/152 73/23/152 95/115/152
f 73/23/152 97/3/152 78/1/152
f 65/11/152 69/27/152 101/116/152
f 86/117/152 89/118/152 99/9/152
f 99/9/152 89/118/152 98/95/152
f 79/105/161 80/86/161 40/97/161
f 101/116/152 95/115/152 103/25/152
f 73/23/152 76/31/152 97/3/152
f 47/119/152 86/117/152 53/89/152
f 92/101/152 101/116/152 102/33/152
f 61/32/152 65/11/152 92/101/152
f 54/113/162 87/120/162 88/56/162
f 51/93/152 57/35/152 89/118/152
f 57/35/152 61/32/152 98/95/152
f 44/121/163 41/122/163 40/97/163
f 47/119/152 51/93/152 86/117/152
f 80/86/152 38/87/152 43/123/152
f 41/122/164 44/121/164 81/106/164
f 50/112/165 85/114/165 87/120/165
f 67/50/133 92/101/133 100/34/133
f 82/108/152 43/123/152 47/119/152
f 87/120/166 55/110/166 58/44/166
f 79/105/167 40/97/167 41/122/167
f 53/89/136 99/9/136 59/40/136
f 45/81/152 82/108/152 84/124/152
f 44/104/168 49/80/168 48/125/168
f 79/105/169 42/107/169 39/109/169
f 40/97/152 82/108/152 45/81/152
f 84/124/152 53/89/152 49/80/152
f 39/109/170 80/86/170 79/105/170
f 49/80/171 52/111/171 48/125/171
f 86/117/152 99/9/152 53/89/152
f 54/113/172 57/35/172 51/93/172
f 55/110/173 59/40/173 58/44/173
f 50/112/174 87/120/174 54/113/174
f 45/81/152 84/124/152 49/80/152
f 101/116/152 103/25/152 102/33/152
f 65/11/152 101/116/152 92/101/152
f 51/93/152 89/118/152 86/117/152
f 92/101/152 102/33/152 100/34/152
f 95/115/152 78/1/152 103/25/152
f 73/23/152 78/1/152 95/115/152
f 54/113/175 88/56/175 56/55/175
f 47/119/152 53/89/152 84/124/152
f 44/121/176 40/97/176 45/81/176
f 57/35/152 98/95/152 89/118/152
f 82/108/152 47/119/152 84/124/152
f 98/95/152 92/101/152 100/34/152
f 87/120/177 58/44/177 88/56/177
f 80/86/152 43/123/152 82/108/152
f 41/122/178 81/106/178 79/105/178
f 99/9/152 98/95/152 104/8/152
f 69/27/152 95/115/152 101/116/152
f 98/95/152 100/34/152 104/8/152
f 38/88/179 42/107/179 43/103/179
f 85/114/180 55/110/180 87/120/180
