# Blender v2.93.6 OBJ File: 'elephant.blend'
# www.blender.org
mtllib elephant.mtl
o Plane.003
v -1.198395 1.834582 0.146499
v -1.203475 1.578116 0.143255
v -1.236650 1.539399 0.143255
v -1.277377 1.591553 0.115769
v -1.261970 1.390875 0.090891
v -1.309786 1.396424 0.097527
v -1.294983 1.187884 0.051773
v -1.326929 1.187999 0.052366
v -1.297239 0.685135 0.018592
v -1.329170 0.685445 0.017668
v -1.329299 0.475102 0.014738
v -1.361230 0.475412 0.014639
v -1.301128 0.414378 0.048764
v -1.390355 0.414689 0.048586
v -1.301735 0.239619 0.050061
v -1.390962 0.239930 0.049883
v -1.381451 0.155299 0.026023
v -1.400421 0.155610 0.026018
v -1.198395 1.834582 0.000000
v -1.198395 1.834582 -0.146498
v -1.203475 1.578116 -0.143255
v -1.203475 1.578116 0.000000
v -1.236650 1.539399 -0.143255
v -1.277377 1.591553 -0.115769
v -1.305906 1.591553 0.000000
v -1.236650 1.539399 0.000000
v -1.261970 1.390875 -0.090891
v -1.309786 1.396424 -0.097527
v -1.323857 1.396424 0.000000
v -1.261970 1.390875 0.000000
v -1.294983 1.187884 -0.051773
v -1.326929 1.187999 -0.052365
v -1.327616 1.189385 0.000000
v -1.295668 1.189266 0.000000
v -1.297239 0.685135 -0.018592
v -1.329170 0.685445 -0.017668
v -1.329296 0.685084 0.000000
v -1.297365 0.684776 0.000000
v -1.329299 0.475102 -0.014738
v -1.361230 0.475412 -0.014639
v -1.361356 0.475051 0.000000
v -1.329425 0.474743 0.000000
v -1.301128 0.414378 -0.048764
v -1.390355 0.414689 -0.048586
v -1.390708 0.414327 0.000000
v -1.301482 0.414020 0.000000
v -1.301735 0.239619 -0.050061
v -1.390962 0.239930 -0.049882
v -1.391315 0.239568 0.000000
v -1.302089 0.239260 0.000000
v -1.381451 0.155299 -0.026023
v -1.400421 0.155610 -0.026018
v -1.400496 0.155248 0.000000
v -1.381527 0.154940 0.000000
vt 0.000000 0.420011
vt 0.000000 0.420011
vt 0.000000 0.420011
vt 0.000000 0.420011
vt 0.000000 0.420011
vt 0.000000 0.420011
vt 0.000000 0.420011
vt 0.000000 0.420011
vt 0.000000 0.420011
vt 0.000000 0.517491
vt 0.000000 0.517490
vt 0.000000 0.517490
vt 0.000000 0.517490
vt 0.000000 0.420011
vt 0.000000 0.420011
vt 0.000000 0.420011
vt 0.000000 0.420011
vt 0.000000 0.420011
vt 0.000000 0.517490
vt 0.000000 0.517491
vt 0.000000 0.517491
vt 0.000000 0.517491
vt 0.000000 0.420011
vt 0.000000 0.517490
vt 0.000000 0.517490
vt 0.000000 0.517490
vt 0.000000 0.420011
vt 0.000000 0.420011
vt 0.000000 0.420011
vt 0.000000 0.517490
vt 0.000000 0.517490
vt 0.000000 0.420011
vt 0.000000 0.420011
vt 0.000000 0.517491
vt 0.000000 0.517490
vt 0.000000 0.517490
vt 0.000000 0.420011
vt 0.000000 0.517491
vt 0.000000 0.517490
vt 0.000000 0.420011
vt 0.000000 0.420011
vt 0.000000 0.517491
vt 0.000000 0.517490
vt 0.000000 0.420011
vt 0.000000 0.517491
vt 0.000000 0.517491
vt 0.000000 0.517490
vt 0.000000 0.420011
vt 0.000000 0.517490
vt 0.000000 0.517490
vt 0.000000 0.420011
vt 0.000000 0.420011
vt 0.000000 0.517490
vt 0.000000 0.517490
vn 0.7594 -0.6507 0.0000
vn 0.9083 0.4180 -0.0180
vn -1.0000 0.0035 0.0073
vn -0.9009 0.4340 0.0033
vn -0.0000 0.4888 0.8724
vn -0.0029 -0.2716 0.9624
vn -0.0020 0.0074 1.0000
vn 1.0000 -0.0035 -0.0070
vn -0.0162 -0.9998 0.0139
vn 0.7278 -0.6857 0.0073
vn -0.9939 0.1097 0.0062
vn 0.9091 0.4164 -0.0097
vn -1.0000 0.0035 0.0071
vn -0.9003 0.4352 -0.0030
vn 0.0020 0.4872 0.8733
vn -0.0047 -0.2718 0.9623
vn 1.0000 -0.0035 -0.0072
vn -0.0164 -0.9998 0.0138
vn 0.7267 -0.6870 -0.0002
vn -0.9941 0.1082 0.0014
vn 0.9083 0.4180 0.0180
vn -1.0000 0.0035 -0.0073
vn -0.9009 0.4340 -0.0033
vn -0.0000 0.4888 -0.8724
vn -0.0029 -0.2716 -0.9624
vn -0.0020 0.0074 -1.0000
vn 1.0000 -0.0035 0.0070
vn -0.0162 -0.9998 -0.0139
vn 0.7278 -0.6857 -0.0073
vn -0.9939 0.1097 -0.0062
vn 0.9091 0.4164 0.0097
vn -1.0000 0.0035 -0.0071
vn -0.9003 0.4352 0.0030
vn 0.0020 0.4872 -0.8733
vn -0.0047 -0.2718 -0.9623
vn 1.0000 -0.0035 0.0072
vn -0.0164 -0.9998 -0.0138
vn 0.7267 -0.6870 0.0002
vn -0.9941 0.1082 -0.0014
vn -0.2963 0.2539 0.9207
vn 0.9858 -0.1681 0.0000
vn -0.9510 0.3091 0.0000
vn 0.1111 -0.2054 0.9723
vn -0.9617 0.1376 0.2370
vn 0.0897 -0.3447 0.9344
vn -0.0295 -0.0657 0.9974
vn 0.9862 -0.1648 -0.0174
vn -0.9885 0.0504 0.1426
vn 0.9885 -0.1509 -0.0048
vn 1.0000 -0.0034 -0.0067
vn -0.9999 0.0035 0.0132
vn -0.9886 0.1508 0.0040
vn -0.0290 -0.0139 0.9995
vn 0.9998 -0.0198 0.0000
vn -0.3494 -0.0049 0.9370
vn -0.8921 0.3947 0.2198
vn 0.0174 -0.2131 0.9769
vn -0.9857 0.0907 0.1422
vn -0.5480 0.0128 0.8364
vn 0.0183 -0.0689 0.9975
vn 0.9870 -0.1605 0.0000
vn -0.9997 0.0182 0.0136
vn 0.9886 -0.1508 -0.0038
vn 0.9999 -0.0036 -0.0133
vn -1.0000 0.0033 0.0071
vn -0.9885 0.1509 0.0048
vn -0.0032 -0.0139 0.9999
vn -0.2963 0.2539 -0.9207
vn 0.1111 -0.2054 -0.9723
vn -0.9617 0.1376 -0.2370
vn 0.0897 -0.3447 -0.9344
vn -0.0295 -0.0657 -0.9974
vn 0.9862 -0.1648 0.0174
vn -0.9885 0.0504 -0.1426
vn 0.9885 -0.1509 0.0048
vn 1.0000 -0.0034 0.0067
vn -0.9999 0.0035 -0.0132
vn -0.9886 0.1508 -0.0040
vn -0.0290 -0.0139 -0.9995
vn -0.3494 -0.0049 -0.9370
vn -0.8921 0.3947 -0.2198
vn 0.0174 -0.2131 -0.9769
vn -0.9857 0.0907 -0.1422
vn -0.5480 0.0128 -0.8364
vn 0.0183 -0.0689 -0.9975
vn -0.9997 0.0182 -0.0136
vn 0.9886 -0.1508 0.0038
vn 0.9999 -0.0036 0.0133
vn -1.0000 0.0033 -0.0071
vn -0.9885 0.1509 -0.0048
vn -0.0032 -0.0139 -0.9999
usemtl Material.001
s off
f 2/1/1 26/2/1 22/3/1
f 2/1/1 3/4/1 26/2/1
f 21/5/1 22/3/1 26/2/1
f 21/5/1 26/2/1 23/6/1
usemtl Material.003
f 11/7/2 46/8/2 42/9/2
f 45/10/3 16/11/3 14/12/3
f 12/13/4 45/10/4 14/12/4
f 11/7/5 14/12/5 13/14/5
f 16/11/6 17/15/6 15/16/6
f 13/14/7 16/11/7 15/16/7
f 46/8/8 15/16/8 50/17/8
f 54/18/9 18/19/9 53/20/9
f 50/17/10 17/15/10 54/18/10
f 49/21/11 18/19/11 16/11/11
f 11/7/12 13/14/12 46/8/12
f 45/10/13 49/21/13 16/11/13
f 12/13/14 41/22/14 45/10/14
f 11/7/15 12/13/15 14/12/15
f 16/11/16 18/19/16 17/15/16
f 13/14/7 14/12/7 16/11/7
f 46/8/17 13/14/17 15/16/17
f 54/18/18 17/15/18 18/19/18
f 50/17/19 15/16/19 17/15/19
f 49/21/20 53/20/20 18/19/20
f 39/23/21 42/9/21 46/8/21
f 45/10/22 44/24/22 48/25/22
f 40/26/23 44/24/23 45/10/23
f 39/23/24 43/27/24 44/24/24
f 48/25/25 47/28/25 51/29/25
f 43/27/26 47/28/26 48/25/26
f 46/8/27 50/17/27 47/28/27
f 54/18/28 53/20/28 52/30/28
f 50/17/29 54/18/29 51/29/29
f 49/21/30 48/25/30 52/30/30
f 39/23/31 46/8/31 43/27/31
f 45/10/32 48/25/32 49/21/32
f 40/26/33 45/10/33 41/22/33
f 39/23/34 44/24/34 40/26/34
f 48/25/35 51/29/35 52/30/35
f 43/27/26 48/25/26 44/24/26
f 46/8/36 47/28/36 43/27/36
f 54/18/37 52/30/37 51/29/37
f 50/17/38 51/29/38 47/28/38
f 49/21/39 52/30/39 53/20/39
usemtl Material.002
f 2/1/40 4/31/40 3/4/40
f 26/2/41 5/32/41 30/33/41
f 19/34/42 4/31/42 1/35/42
f 6/36/43 7/37/43 5/32/43
f 25/38/44 6/36/44 4/31/44
f 3/4/45 6/36/45 5/32/45
f 7/37/46 10/39/46 9/40/46
f 30/33/47 7/37/47 34/41/47
f 29/42/48 8/43/48 6/36/48
f 38/44/49 11/7/49 42/9/49
f 34/41/50 9/40/50 38/44/50
f 33/45/51 10/39/51 8/43/51
f 37/46/52 12/13/52 10/39/52
f 10/39/53 11/7/53 9/40/53
f 2/1/54 19/34/54 1/35/54
f 2/1/55 1/35/55 4/31/55
f 26/2/41 3/4/41 5/32/41
f 19/34/56 25/38/56 4/31/56
f 6/36/57 8/43/57 7/37/57
f 25/38/58 29/42/58 6/36/58
f 3/4/59 4/31/59 6/36/59
f 7/37/60 8/43/60 10/39/60
f 30/33/61 5/32/61 7/37/61
f 29/42/62 33/45/62 8/43/62
f 38/44/63 9/40/63 11/7/63
f 34/41/64 7/37/64 9/40/64
f 33/45/65 37/46/65 10/39/65
f 37/46/66 41/22/66 12/13/66
f 10/39/67 12/13/67 11/7/67
f 2/1/54 22/3/54 19/34/54
f 21/5/68 23/6/68 24/47/68
f 26/2/41 30/33/41 27/48/41
f 19/34/42 20/49/42 24/47/42
f 28/50/69 27/48/69 31/51/69
f 25/38/70 24/47/70 28/50/70
f 23/6/71 27/48/71 28/50/71
f 31/51/72 35/52/72 36/53/72
f 30/33/73 34/41/73 31/51/73
f 29/42/74 28/50/74 32/54/74
f 38/44/75 42/9/75 39/23/75
f 34/41/76 38/44/76 35/52/76
f 33/45/77 32/54/77 36/53/77
f 37/46/78 36/53/78 40/26/78
f 36/53/79 35/52/79 39/23/79
f 21/5/54 20/49/54 19/34/54
f 21/5/80 24/47/80 20/49/80
f 26/2/41 27/48/41 23/6/41
f 19/34/81 24/47/81 25/38/81
f 28/50/82 31/51/82 32/54/82
f 25/38/83 28/50/83 29/42/83
f 23/6/84 28/50/84 24/47/84
f 31/51/85 36/53/85 32/54/85
f 30/33/61 31/51/61 27/48/61
f 29/42/86 32/54/86 33/45/86
f 38/44/87 39/23/87 35/52/87
f 34/41/88 35/52/88 31/51/88
f 33/45/89 36/53/89 37/46/89
f 37/46/90 40/26/90 41/22/90
f 36/53/91 39/23/91 40/26/91
f 21/5/54 19/34/54 22/3/54
