# Blender v2.93.6 OBJ File: 'elephant.blend'
# www.blender.org
mtllib elephant_tail.mtl
o Plane.003
v -1.237091 1.688316 0.127097
v -1.223179 1.559256 0.141237
v -1.314962 1.258374 0.065427
v -1.345454 0.459863 0.037478
v -1.394056 0.155393 0.033405
v -1.198395 1.834582 0.000000
v -1.237091 1.688316 -0.127097
v -1.223179 1.559256 -0.141237
v -1.315434 1.568500 0.000000
v -1.228678 1.552284 0.000000
v -1.314962 1.258374 -0.065427
v -1.363597 0.475189 0.000000
v -1.298723 0.798342 0.000000
v -1.345454 0.459863 -0.037478
v -1.328676 0.484822 0.000000
v -1.396587 0.153378 0.000000
v -1.306428 0.226270 0.000000
v -1.394056 0.155393 -0.033405
vt 0.000000 0.517491
vt 0.000000 0.472352
vt 0.000000 0.517490
vt 0.000000 0.421943
vt 0.000000 0.420011
vt 0.000000 0.420011
vt 0.000000 0.517491
vt 0.000000 0.490778
vt 0.000000 0.468634
vt 0.000000 0.420011
vt 0.000000 0.507101
vt 0.000000 0.420011
vt 0.000000 0.517491
vt 0.000000 0.517490
vt 0.000000 0.472352
vt 0.000000 0.468634
vt 0.000000 0.490778
vt 0.000000 0.420011
vn -0.8849 0.0949 0.4560
vn 0.7341 -0.0701 0.6754
vn 0.7410 -0.0688 0.6680
vn -0.9978 0.0122 0.0650
vn -0.8698 0.1325 0.4752
vn 0.4092 -0.0775 0.9091
vn 0.6287 -0.7776 -0.0007
vn 0.8886 0.1435 0.4357
vn -0.9001 0.3959 0.1816
vn -0.6588 0.0114 0.7523
vn 0.9578 -0.2864 -0.0232
vn -0.9924 0.1017 0.0690
vn -0.2356 0.8543 0.4634
vn 0.8900 0.0766 0.4494
vn 0.9937 -0.1066 -0.0334
vn -0.8849 0.0949 -0.4560
vn 0.7341 -0.0701 -0.6754
vn 0.7410 -0.0688 -0.6680
vn -0.9978 0.0122 -0.0650
vn -0.8698 0.1325 -0.4752
vn 0.4092 -0.0775 -0.9091
vn 0.6287 -0.7776 0.0007
vn 0.8886 0.1435 -0.4357
vn -0.9001 0.3959 -0.1816
vn -0.6588 0.0114 -0.7523
vn 0.9578 -0.2864 0.0232
vn -0.0000 0.0000 -1.0000
vn -0.9924 0.1017 -0.0690
vn -0.2356 0.8543 -0.4634
vn 0.8900 0.0766 -0.4494
vn 0.9937 -0.1066 0.0334
usemtl Material.002
s off
f 9/1/1 3/2/1 1/3/1
f 3/2/2 15/4/2 13/5/2
f 10/6/3 3/2/3 13/5/3
f 9/1/4 15/4/4 3/2/4
usemtl Material.003
f 12/7/5 5/8/5 4/9/5
f 4/9/6 5/8/6 17/10/6
f 17/10/7 5/8/7 16/11/7
usemtl Material.002
f 2/12/8 6/13/8 1/3/8
f 6/13/9 9/1/9 1/3/9
f 2/12/10 1/3/10 3/2/10
f 10/6/11 2/12/11 3/2/11
usemtl Material.003
f 12/7/12 16/11/12 5/8/12
f 15/4/13 12/7/13 4/9/13
f 15/4/14 4/9/14 17/10/14
usemtl Material.002
f 2/12/15 10/6/15 6/13/15
f 9/1/16 7/14/16 11/15/16
f 11/15/17 13/5/17 15/4/17
f 10/6/18 13/5/18 11/15/18
f 9/1/19 11/15/19 15/4/19
usemtl Material.003
f 12/7/20 14/16/20 18/17/20
f 14/16/21 17/10/21 18/17/21
f 17/10/22 16/11/22 18/17/22
usemtl Material.002
f 8/18/23 7/14/23 6/13/23
f 6/13/24 7/14/24 9/1/24
f 8/18/25 11/15/25 7/14/25
f 10/6/26 11/15/26 8/18/26
f 9/1/27 15/4/27 12/7/27
usemtl Material.003
f 12/7/28 18/17/28 16/11/28
f 15/4/29 14/16/29 12/7/29
f 15/4/30 17/10/30 14/16/30
usemtl Material.002
f 8/18/31 6/13/31 10/6/31
