# Blender v2.93.6 OBJ File: 'elephant.blend'
# www.blender.org
mtllib elephant_body.mtl
o Plane
v -0.085301 0.953414 0.006244
v -1.053713 2.174570 0.472929
v -0.387504 1.046201 0.451021
v -0.432904 2.577816 0.383139
v 0.342997 2.656255 0.161580
v -1.224163 1.104986 0.126791
v -0.726375 2.432018 -0.004373
v -0.979617 1.057775 -0.001670
v -0.790704 1.047907 0.603849
v -0.710369 2.430772 0.177565
v -1.144506 1.110386 0.520335
v -0.156180 1.252393 0.614371
v -0.395390 1.132013 0.574422
v -0.083615 1.127582 0.574400
v 0.466986 1.359097 0.606220
v 0.680779 1.350042 0.645882
v -0.784817 1.234710 0.628101
v 0.506841 1.913681 0.599837
v -0.789625 1.764495 0.613013
v -0.149274 1.829859 0.597976
v -1.195729 1.811806 0.212593
v 0.663640 2.780400 0.225412
v -0.400054 0.996193 0.144896
v -0.087989 1.047213 0.453500
v -1.192196 1.106507 0.373508
v 0.473499 1.252701 0.451044
v 0.926951 1.228263 0.310328
v 0.926425 1.272401 0.508758
v 0.914549 1.368534 0.572630
v -0.456156 1.049180 0.539605
v -0.403960 2.506089 0.481603
v 0.515091 2.642351 0.491095
v -1.134162 1.827162 0.503622
v 0.339426 2.571462 0.482867
v -0.758189 2.333644 0.509283
v -0.062618 2.491210 0.479975
v 0.690370 2.701685 0.445409
v -1.053189 2.173981 0.268981
v -0.108447 2.540748 0.403839
v 0.318616 2.630979 0.411398
v 0.633838 2.758742 0.380816
v -0.755178 2.398926 0.416214
v 0.838053 2.199346 0.493804
v -0.085748 0.989716 0.000000
v -0.061061 2.585393 0.000000
v 0.473827 1.195442 0.000000
v 0.671138 2.799582 0.000000
v -1.059656 2.162910 0.000000
v -0.406695 2.634932 0.000000
v -0.085301 0.953414 -0.006244
v -0.061061 2.618041 0.000000
v 0.475806 1.160791 0.000000
v -1.053713 2.174570 -0.472928
v -0.387504 1.046201 -0.451020
v -0.432904 2.577816 -0.383139
v 0.342997 2.656255 -0.161580
v -1.224163 1.104986 -0.126791
v -1.195621 1.840374 0.000000
v 0.325704 2.659454 0.000000
v 0.714687 1.216806 0.000000
v 0.339276 2.695864 0.000000
v -0.726375 2.432018 0.004373
v -0.979617 1.057775 0.001670
v -0.790704 1.047907 -0.603849
v -0.710369 2.430772 -0.177565
v -1.223042 1.207156 0.000000
v -1.144506 1.110386 -0.520335
v -0.156180 1.252393 -0.614371
v -0.395390 1.132013 -0.574422
v -0.083615 1.127582 -0.574400
v 0.466986 1.359097 -0.606220
v 0.680779 1.350042 -0.645882
v -0.784817 1.234710 -0.628101
v 0.506841 1.913681 -0.599837
v -0.789625 1.764495 -0.613013
v -0.149274 1.829859 -0.597976
v -1.195729 1.811806 -0.212593
v 0.663640 2.780400 -0.225412
v -0.400054 0.996193 -0.144896
v -0.087989 1.047213 -0.453499
v -1.192196 1.106507 -0.373508
v 0.473499 1.252701 -0.451044
v 0.926951 1.228263 -0.310328
v 0.926425 1.272401 -0.508758
v 0.923341 1.236092 0.000000
v 0.914549 1.368534 -0.572630
v -0.685433 0.989717 0.000000
v -0.456156 1.049180 -0.539605
v -0.403960 2.506089 -0.481603
v 0.515091 2.642351 -0.491095
v -1.134162 1.827162 -0.503622
v 0.339426 2.571462 -0.482867
v -0.758189 2.333644 -0.509283
v -0.062618 2.491210 -0.479975
v 0.690370 2.701685 -0.445409
v -1.053189 2.173981 -0.268980
v -0.108447 2.540748 -0.403839
v 0.318616 2.630979 -0.411398
v 0.633838 2.758742 -0.380816
v -0.755178 2.398926 -0.416213
v 0.838053 2.199346 -0.493803
vt 1.000000 0.000000
vt 1.000000 0.000000
vt 1.000000 0.000000
vt 1.001837 0.000000
vt 1.000000 0.000000
vt 1.000000 0.086400
vt 0.996447 0.086400
vt 1.000000 0.000000
vt 1.000000 0.115179
vt 1.000000 0.999536
vt 1.000000 0.999233
vt 1.000000 1.000000
vt 0.000000 0.923858
vt 0.494899 0.997482
vt 0.494899 1.000000
vt 0.000000 0.939824
vt 0.494899 1.000000
vt 1.000000 1.000000
vt 1.000000 1.000000
vt 0.993189 0.000000
vt 1.000000 0.999985
vt 0.000000 0.519712
vt 1.000000 0.517689
vt 1.000000 0.478174
vt 1.000000 0.939194
vt 0.000000 0.518874
vt 0.000000 0.640225
vt 1.000000 0.942579
vt 1.000000 1.000000
vt 1.000000 1.000000
vt 1.000000 0.996542
vt 0.494898 0.000000
vt 0.000000 0.000037
vt 0.000000 0.030129
vt 1.000000 1.000000
vt 1.000000 0.940046
vt 1.000000 0.940993
vt 0.494898 0.135318
vt 0.000000 0.005281
vt 0.992945 0.163823
vt 0.494899 0.518066
vt 1.000000 0.000000
vt 0.494898 0.000000
vt 0.494899 0.928297
vt 1.000000 0.587271
vt 1.000000 0.934066
vt 0.000000 0.947578
vt 1.000000 0.088659
vt 1.000000 0.041297
vt 0.000000 0.000910
vt 0.917890 0.000000
vt 1.000000 0.000000
vt 1.000000 0.000000
vt 1.000000 0.000000
vt 1.000000 0.000000
vt 1.000000 0.000000
vt 1.000000 1.000000
vt 1.000000 1.000000
vt 1.000000 0.000000
vt 0.996447 0.086400
vt 1.000000 0.086400
vt 1.000000 0.115179
vt 1.000000 0.000000
vt 1.000000 0.999536
vt 1.000000 1.000000
vt 1.000000 0.999233
vt 0.000000 0.923858
vt 0.494899 1.000000
vt 0.494899 0.997482
vt 0.494899 1.000000
vt 0.993189 0.000000
vt 1.000000 0.999985
vt 1.000000 0.517689
vt 1.000000 0.939194
vt 1.000000 0.478174
vt 0.000000 0.518874
vt 0.000000 0.640225
vt 1.000000 0.942579
vt 1.000000 1.000000
vt 1.000000 0.000000
vt 1.000000 0.996542
vt 0.494898 0.000000
vt 0.000000 0.000037
vt 1.000000 0.940046
vt 1.000000 0.940993
vt 0.494898 0.135318
vt 0.000000 0.005281
vt 0.992945 0.163823
vt 0.494899 0.518066
vt 1.000000 0.000000
vt 0.494898 0.000000
vt 0.494899 0.928297
vt 1.000000 0.934066
vt 1.000000 0.587271
vt 0.000000 0.947578
vt 1.000000 0.088659
vt 1.000000 0.041297
vt 0.000000 0.000910
vt 0.917890 0.000000
vt 1.000000 0.000000
vt 1.000000 0.000000
vn 0.0514 -0.1687 -0.9843
vn -0.0000 -0.1695 -0.9855
vn -0.0116 -0.8213 0.5704
vn 0.2970 -0.7817 0.5484
vn -0.2074 0.9751 0.0784
vn -0.6005 0.7996 -0.0061
vn -0.6266 0.7770 0.0604
vn -0.1853 0.9534 0.2380
vn -0.0613 -0.9844 0.1647
vn 0.0988 0.9752 0.1982
vn -0.9215 0.3884 0.0062
vn -0.0244 0.1690 0.9853
vn -0.9248 0.3363 0.1779
vn -0.1058 0.1479 0.9833
vn -0.2975 0.9521 0.0711
vn -0.3705 0.9270 0.0581
vn -0.4334 -0.6999 -0.5678
vn -0.5347 0.8404 0.0887
vn 0.0563 0.8148 0.5770
vn -0.1743 0.7741 0.6086
vn -0.2681 0.7925 0.5478
vn -0.9992 0.0396 0.0048
vn -0.0043 0.0118 0.9999
vn -0.2953 0.0265 0.9550
vn 0.0206 0.0281 0.9994
vn 0.3419 -0.9193 0.1949
vn -0.0619 -0.9846 0.1634
vn 0.1013 -0.1312 0.9862
vn 0.0048 0.1790 0.9838
vn 0.2007 0.1522 0.9678
vn -0.0093 -0.9999 -0.0134
vn -0.1896 0.1299 0.9732
vn -0.3712 0.7658 0.5251
vn -0.0018 -0.8328 0.5536
vn 0.2953 -0.8005 0.5215
vn -0.6012 0.7991 -0.0039
vn -0.6025 0.7979 -0.0184
vn -0.1590 0.9730 0.1676
vn 0.0483 0.9874 0.1505
vn -0.9320 0.3594 0.0478
vn 0.1879 0.1429 0.9717
vn -0.3907 0.8919 0.2276
vn -0.3702 0.9272 0.0577
vn -0.4961 0.8668 0.0496
vn -0.4831 0.8752 0.0261
vn -0.3075 0.6853 0.6602
vn 0.0395 0.8482 0.5281
vn -0.1519 0.7373 0.6582
vn -0.0635 0.7198 0.6913
vn -0.1814 0.0243 0.9831
vn -0.9987 0.0432 0.0260
vn 0.2831 0.1645 0.9449
vn 0.2142 0.1118 0.9704
vn 0.0082 0.0283 0.9996
vn -0.9779 0.0418 0.2047
vn -0.9914 0.0243 0.1283
vn -0.9510 0.0209 0.3083
vn 0.5963 -0.6407 0.4837
vn -0.2477 -0.1171 0.9617
vn 0.0593 -0.2730 0.9602
vn -0.0043 -0.3073 0.9516
vn -0.2985 0.0245 0.9541
vn 0.0210 0.0287 0.9994
vn 0.3382 -0.9218 0.1896
vn 0.0016 -0.9787 0.2053
vn 0.0920 -0.9954 -0.0262
vn 0.1668 -0.4836 0.8593
vn 0.0307 -0.3692 0.9288
vn -0.2046 -0.8734 0.4419
vn -0.0047 0.1679 0.9858
vn -0.2662 0.1870 0.9456
vn -0.9743 0.2253 -0.0032
vn 0.0123 0.1741 0.9847
vn -0.0432 0.1810 0.9825
vn 0.0120 -0.9990 0.0429
vn -0.1935 -0.9771 0.0887
vn -0.1640 -0.9858 0.0351
vn -0.1749 -0.9842 0.0287
vn -0.1455 -0.9755 0.1653
vn 0.0700 -0.9201 0.3853
vn -0.1379 -0.8196 0.5561
vn 0.2944 -0.5034 0.8124
vn -0.1844 -0.9595 0.2129
vn 0.2239 -0.9548 0.1957
vn -0.0349 -0.9975 0.0607
vn -0.4572 0.7350 0.5007
vn -0.3047 0.7250 0.6177
vn 0.5581 0.8004 0.2186
vn 0.9597 0.2806 -0.0162
vn 0.9777 0.1577 -0.1388
vn 0.9958 0.0915 -0.0019
vn 0.9895 0.1414 -0.0288
vn 0.9956 0.0929 -0.0092
vn 0.9485 0.3115 0.0581
vn 0.0514 -0.1687 0.9843
vn 0.0000 0.0000 1.0000
vn -0.0000 -0.1695 0.9855
vn -0.0116 -0.8213 -0.5704
vn 0.2970 -0.7817 -0.5484
vn -0.2074 0.9751 -0.0784
vn -0.6005 0.7996 0.0061
vn -0.6266 0.7770 -0.0604
vn -0.1853 0.9534 -0.2380
vn -0.0613 -0.9844 -0.1647
vn 0.0988 0.9752 -0.1982
vn -0.9215 0.3884 -0.0062
vn -0.0244 0.1690 -0.9853
vn -0.9248 0.3363 -0.1779
vn -0.1058 0.1479 -0.9833
vn -0.2975 0.9521 -0.0711
vn -0.3705 0.9270 -0.0581
vn -0.4334 -0.6999 0.5678
vn -0.5347 0.8404 -0.0887
vn 0.0563 0.8148 -0.5770
vn -0.1743 0.7741 -0.6086
vn -0.2681 0.7925 -0.5478
vn -0.9992 0.0396 -0.0048
vn -0.0043 0.0118 -0.9999
vn -0.2953 0.0265 -0.9550
vn 0.0206 0.0281 -0.9994
vn 0.3419 -0.9193 -0.1949
vn -0.0619 -0.9846 -0.1634
vn 0.1013 -0.1312 -0.9862
vn 0.0048 0.1790 -0.9838
vn 0.2007 0.1522 -0.9678
vn -0.0093 -0.9999 0.0134
vn -0.1896 0.1299 -0.9732
vn -0.3712 0.7658 -0.5251
vn -0.0018 -0.8328 -0.5536
vn 0.2953 -0.8005 -0.5215
vn -0.6012 0.7991 0.0039
vn -0.6025 0.7979 0.0184
vn -0.1590 0.9730 -0.1676
vn 0.0483 0.9874 -0.1505
vn -0.9320 0.3594 -0.0478
vn 0.1879 0.1429 -0.9717
vn -0.3907 0.8919 -0.2276
vn -0.3702 0.9272 -0.0577
vn -0.4961 0.8668 -0.0496
vn -0.4831 0.8752 -0.0261
vn -0.3075 0.6853 -0.6602
vn 0.0395 0.8482 -0.5281
vn -0.1519 0.7373 -0.6582
vn -0.0635 0.7198 -0.6913
vn -0.1814 0.0243 -0.9831
vn -0.9987 0.0432 -0.0260
vn 0.2831 0.1645 -0.9449
vn 0.2142 0.1118 -0.9704
vn 0.0082 0.0283 -0.9996
vn -0.9779 0.0418 -0.2047
vn -0.9914 0.0243 -0.1283
vn -0.9510 0.0209 -0.3083
vn 0.5963 -0.6407 -0.4837
vn -0.2477 -0.1171 -0.9617
vn 0.0593 -0.2730 -0.9602
vn -0.0043 -0.3073 -0.9516
vn -0.2985 0.0245 -0.9541
vn 0.0210 0.0287 -0.9994
vn 0.3382 -0.9218 -0.1896
vn 0.0016 -0.9787 -0.2053
vn 0.0920 -0.9954 0.0262
vn 0.1668 -0.4836 -0.8593
vn 0.0307 -0.3692 -0.9288
vn -0.2046 -0.8734 -0.4419
vn -0.0047 0.1679 -0.9858
vn -0.2662 0.1870 -0.9456
vn -0.9743 0.2253 0.0032
vn 0.0123 0.1741 -0.9847
vn -0.0432 0.1810 -0.9825
vn 0.0120 -0.9990 -0.0429
vn -0.1935 -0.9771 -0.0887
vn -0.1640 -0.9858 -0.0351
vn -0.1749 -0.9842 -0.0287
vn -0.1455 -0.9755 -0.1653
vn 0.0700 -0.9201 -0.3853
vn -0.1379 -0.8196 -0.5561
vn 0.2944 -0.5034 -0.8124
vn -0.1844 -0.9595 -0.2129
vn 0.2239 -0.9548 -0.1957
vn -0.0349 -0.9975 -0.0607
vn -0.4572 0.7350 -0.5007
vn -0.3047 0.7250 -0.6177
vn 0.5581 0.8004 -0.2186
vn 0.9597 0.2806 0.0162
vn 0.9777 0.1577 0.1388
vn 0.9958 0.0915 0.0019
vn 0.9895 0.1414 0.0288
vn 0.9956 0.0929 0.0092
vn 0.9485 0.3115 -0.0581
usemtl Material.001
s off
f 44/1/1 52/2/1 1/3/1
f 87/4/2 44/1/2 1/3/2
f 3/5/3 14/6/3 13/7/3
f 14/6/4 26/8/4 15/9/4
f 39/10/5 40/11/5 5/12/5
f 38/13/6 42/14/6 10/15/6
f 48/16/7 10/15/7 7/17/7
f 51/18/8 5/12/8 61/19/8
usemtl Material.002
f 1/3/9 23/20/9 87/4/9
usemtl Material.001
f 51/18/10 4/21/10 39/10/10
f 58/22/11 38/13/11 48/16/11
f 20/23/12 18/24/12 34/25/12
f 21/26/13 33/27/13 38/13/13
f 34/25/14 18/24/14 32/28/14
f 61/19/15 22/29/15 47/30/15
f 5/12/16 41/31/16 22/29/16
f 8/32/17 6/33/17 66/34/17
f 7/17/18 4/21/18 49/35/18
f 31/36/19 39/10/19 4/21/19
f 36/37/20 40/11/20 39/10/20
f 32/28/21 41/31/21 40/11/21
f 58/22/22 6/33/22 21/26/22
f 20/23/23 15/9/23 18/24/23
f 17/38/24 33/27/24 11/39/24
f 12/40/25 20/23/25 19/41/25
usemtl Material.002
f 52/2/26 24/42/26 1/3/26
f 1/3/27 3/5/27 23/20/27
usemtl Material.001
f 9/43/28 13/7/28 17/38/28
f 20/23/29 35/44/29 19/41/29
f 32/28/30 43/45/30 37/46/30
f 3/5/31 9/43/31 8/32/31
f 35/44/32 2/47/32 33/27/32
f 35/44/33 4/21/33 42/14/33
f 3/5/34 24/42/34 14/6/34
f 14/6/35 24/42/35 26/8/35
f 38/13/36 2/47/36 42/14/36
f 48/16/37 38/13/37 10/15/37
f 51/18/38 39/10/38 5/12/38
f 51/18/39 49/35/39 4/21/39
f 58/22/40 21/26/40 38/13/40
f 32/28/41 18/24/41 43/45/41
f 61/19/42 5/12/42 22/29/42
f 5/12/43 40/11/43 41/31/43
f 7/17/44 10/15/44 4/21/44
f 10/15/45 42/14/45 4/21/45
f 34/25/46 32/28/46 40/11/46
f 31/36/47 36/37/47 39/10/47
f 36/37/48 34/25/48 40/11/48
f 32/28/49 37/46/49 41/31/49
f 18/24/50 15/9/50 16/48/50
f 58/22/51 66/34/51 6/33/51
f 18/24/52 16/48/52 29/49/52
f 43/45/53 18/24/53 29/49/53
f 20/23/54 12/40/54 15/9/54
f 33/27/55 21/26/55 25/50/55
f 21/26/56 6/33/56 25/50/56
f 25/50/57 11/39/57 33/27/57
f 30/51/58 3/5/58 13/7/58
f 11/39/59 9/43/59 17/38/59
f 12/40/60 14/6/60 15/9/60
f 13/7/61 14/6/61 12/40/61
f 17/38/62 19/41/62 33/27/62
f 19/41/63 17/38/63 12/40/63
usemtl Material.002
f 52/2/64 26/8/64 24/42/64
f 1/3/65 24/42/65 3/5/65
usemtl Material.001
f 85/52/66 27/53/66 60/54/66
f 9/43/67 30/51/67 13/7/67
f 17/38/68 13/7/68 12/40/68
f 87/4/69 23/20/69 8/32/69
f 20/23/70 31/36/70 35/44/70
f 19/41/71 35/44/71 33/27/71
f 38/13/72 33/27/72 2/47/72
f 31/36/73 20/23/73 36/37/73
f 36/37/74 20/23/74 34/25/74
f 30/51/75 9/43/75 3/5/75
f 9/43/76 11/39/76 25/50/76
f 9/43/77 25/50/77 8/32/77
f 25/50/78 6/33/78 8/32/78
f 8/32/79 23/20/79 3/5/79
f 26/8/80 27/53/80 16/48/80
f 16/48/81 15/9/81 26/8/81
f 29/49/82 16/48/82 28/55/82
f 28/55/83 16/48/83 27/53/83
f 26/8/84 52/2/84 60/54/84
f 27/53/85 26/8/85 60/54/85
f 35/44/86 42/14/86 2/47/86
f 35/44/87 31/36/87 4/21/87
f 37/46/88 22/29/88 41/31/88
f 37/46/89 43/45/89 22/29/89
f 47/30/90 43/45/90 85/52/90
f 43/45/91 29/49/91 27/53/91
f 29/49/92 28/55/92 27/53/92
f 43/45/93 27/53/93 85/52/93
f 22/29/94 43/45/94 47/30/94
f 44/1/95 50/56/95 52/2/95
f 59/57/96 61/19/96 51/18/96
f 87/4/97 50/56/97 44/1/97
f 49/35/96 45/58/96 51/18/96
f 54/59/98 69/60/98 70/61/98
f 70/61/99 71/62/99 82/63/99
f 97/64/100 56/65/100 98/66/100
f 96/67/101 65/68/101 100/69/101
f 48/16/102 62/70/102 65/68/102
f 51/18/103 61/19/103 56/65/103
usemtl Material.002
f 50/56/104 87/4/104 79/71/104
usemtl Material.001
f 51/18/105 97/64/105 55/72/105
f 58/22/106 48/16/106 96/67/106
f 76/73/107 92/74/107 74/75/107
f 77/76/108 96/67/108 91/77/108
f 92/74/109 90/78/109 74/75/109
f 61/19/110 47/30/110 78/79/110
f 46/80/96 52/2/96 60/54/96
f 56/65/111 78/79/111 99/81/111
f 63/82/112 66/34/112 57/83/112
f 62/70/113 49/35/113 55/72/113
f 89/84/114 55/72/114 97/64/114
f 94/85/115 97/64/115 98/66/115
f 90/78/116 98/66/116 99/81/116
f 58/22/117 77/76/117 57/83/117
f 76/73/118 74/75/118 71/62/118
f 73/86/119 67/87/119 91/77/119
f 68/88/120 75/89/120 76/73/120
usemtl Material.002
f 52/2/121 50/56/121 80/90/121
f 50/56/122 79/71/122 54/59/122
usemtl Material.001
f 64/91/123 73/86/123 69/60/123
f 76/73/124 75/89/124 93/92/124
f 90/78/125 95/93/125 101/94/125
f 54/59/126 63/82/126 64/91/126
f 93/92/127 91/77/127 53/95/127
f 93/92/128 100/69/128 55/72/128
f 44/1/96 52/2/96 46/80/96
f 59/57/96 51/18/96 45/58/96
f 54/59/129 70/61/129 80/90/129
f 70/61/130 82/63/130 80/90/130
f 96/67/131 100/69/131 53/95/131
f 48/16/132 65/68/132 96/67/132
f 51/18/133 56/65/133 97/64/133
f 51/18/134 55/72/134 49/35/134
f 58/22/135 96/67/135 77/76/135
f 90/78/136 101/94/136 74/75/136
f 61/19/137 78/79/137 56/65/137
f 47/30/96 61/19/96 59/57/96
f 56/65/138 99/81/138 98/66/138
f 62/70/139 55/72/139 65/68/139
f 65/68/140 55/72/140 100/69/140
f 92/74/141 98/66/141 90/78/141
f 89/84/142 97/64/142 94/85/142
f 94/85/143 98/66/143 92/74/143
f 90/78/144 99/81/144 95/93/144
f 74/75/145 72/96/145 71/62/145
f 58/22/146 57/83/146 66/34/146
f 74/75/147 86/97/147 72/96/147
f 101/94/148 86/97/148 74/75/148
f 76/73/149 71/62/149 68/88/149
f 91/77/150 81/98/150 77/76/150
f 77/76/151 81/98/151 57/83/151
f 81/98/152 91/77/152 67/87/152
f 88/99/153 69/60/153 54/59/153
f 67/87/154 73/86/154 64/91/154
f 68/88/155 71/62/155 70/61/155
f 69/60/156 68/88/156 70/61/156
f 73/86/157 91/77/157 75/89/157
f 75/89/158 68/88/158 73/86/158
usemtl Material.002
f 52/2/159 80/90/159 82/63/159
f 50/56/160 54/59/160 80/90/160
usemtl Material.001
f 85/52/161 60/54/161 83/100/161
f 64/91/162 69/60/162 88/99/162
f 73/86/163 68/88/163 69/60/163
f 87/4/164 63/82/164 79/71/164
f 76/73/165 93/92/165 89/84/165
f 75/89/166 91/77/166 93/92/166
f 96/67/167 53/95/167 91/77/167
f 89/84/168 94/85/168 76/73/168
f 94/85/169 92/74/169 76/73/169
f 88/99/170 54/59/170 64/91/170
f 64/91/171 81/98/171 67/87/171
f 64/91/172 63/82/172 81/98/172
f 81/98/173 63/82/173 57/83/173
f 63/82/174 54/59/174 79/71/174
f 82/63/175 72/96/175 83/100/175
f 72/96/176 82/63/176 71/62/176
f 86/97/177 84/101/177 72/96/177
f 84/101/178 83/100/178 72/96/178
f 82/63/179 60/54/179 52/2/179
f 83/100/180 60/54/180 82/63/180
f 93/92/181 53/95/181 100/69/181
f 93/92/182 55/72/182 89/84/182
f 95/93/183 99/81/183 78/79/183
f 95/93/184 78/79/184 101/94/184
f 47/30/185 85/52/185 101/94/185
f 101/94/186 83/100/186 86/97/186
f 86/97/187 83/100/187 84/101/187
f 101/94/188 85/52/188 83/100/188
f 78/79/189 47/30/189 101/94/189
